# xmcd
# Copyright (C) 1995-1998 Ti Kan
#
# Track frame offsets:
#       150
#       13892
#       25431
#       38636
#
# Disc length: 769 seconds
#
# Revision: 0
# Processed by: cddbd v1.5.2PL0 Copyright (c) Steve Scherf et al.
# Submitted via: CD-Import v1.0
#
DISCID=2a02ff04
DTITLE=Loose Connection - Loose Connection
DYEAR=07
DGENRE=
TTITLE0=Comparaison
TTITLE1=Same Old Story
TTITLE2=Gsichter
TTITLE3=The Path (Live)
EXTD=
EXTT0=
EXTT1=
EXTT2=
EXTT3=
PLAYORDER=
